<?xml version="1.0" encoding="utf-8"?>
<!-- Generator: Adobe Illustrator 19.0.0, SVG Export Plug-In . SVG Version: 6.00 Build 0)  -->
<svg version="1.1" id="Layer_1" xmlns="http://www.w3.org/2000/svg" xmlns:xlink="http://www.w3.org/1999/xlink" x="0px" y="0px"
	 viewBox="0 0 90.3 58.9" style="enable-background:new 0 0 90.3 58.9;" xml:space="preserve">
<style type="text/css">
	.st0{fill:none;}
	.st1{fill:#1B562F;}
</style>
<g id="XMLID_543_">
	<path id="XMLID_701_" d="M13.8,42.6c0.7-0.1,1.3-0.2,1.9-0.3c0.6-0.1,1.2-0.3,1.9-0.5c0.6-0.2,1.3-0.4,2-0.7
		c0.2-0.1,0.4-0.1,0.6-0.1c0.4,0,0.8,0.1,1.1,0.3c0.3,0.2,0.5,0.5,0.5,0.9c0,0.5-0.3,0.9-0.9,1.1c-0.6,0.3-1.3,0.6-2.1,0.8
		c-0.8,0.2-1.6,0.4-2.4,0.5c-0.8,0.1-1.6,0.2-2.5,0.3c-0.8,0.1-1.6,0.1-2.2,0.1c-1.5,0-2.9-0.2-4.2-0.5C6.2,44.3,5,43.8,4,43.1
		c-1-0.7-1.8-1.5-2.4-2.5c-0.6-1-1-2.2-1.2-3.6c-0.2-1.1-0.3-2.2-0.3-3.2C0,32.7,0,31.7,0,30.6c0-1.1,0-2.2,0.1-3.2
		c0-1.1,0.1-2.1,0.3-3.2c0.2-1.4,0.6-2.6,1.2-3.6C2.2,19.5,3,18.7,4,18c1-0.7,2.1-1.2,3.4-1.5c1.3-0.3,2.7-0.5,4.2-0.5
		c0.7,0,1.4,0,2.2,0.1c0.8,0.1,1.6,0.2,2.5,0.3c0.8,0.1,1.6,0.3,2.4,0.5c0.8,0.2,1.5,0.5,2.1,0.8c0.6,0.3,0.9,0.7,0.9,1.1
		c0,0.4-0.2,0.7-0.5,0.9c-0.3,0.2-0.7,0.3-1.1,0.3c-0.2,0-0.5,0-0.7-0.1c-1.4-0.5-2.7-0.9-3.8-1.1c-1.2-0.3-2.5-0.4-4-0.4
		c-2.3,0-4.1,0.5-5.6,1.4c-1.5,0.9-2.3,2.5-2.6,4.5c-0.2,1-0.3,2.1-0.3,3.1c0,1-0.1,2.1-0.1,3.1c0,1,0,2.1,0.1,3.1
		c0,1,0.1,2.1,0.3,3.1c0.2,2.1,1.1,3.6,2.6,4.5c1.5,0.9,3.4,1.4,5.6,1.4C12.4,42.7,13.1,42.6,13.8,42.6z"/>
	<path id="XMLID_697_" d="M75.4,44.8c-1.6-0.2-3-0.5-4.3-1c-0.3-0.1-0.5-0.3-0.7-0.5c-0.2-0.2-0.3-0.4-0.3-0.7
		c0-0.4,0.2-0.7,0.5-0.9c0.3-0.2,0.7-0.3,1.1-0.3c0.2,0,0.4,0,0.6,0.1c0.7,0.2,1.3,0.4,1.9,0.5c0.6,0.1,1.2,0.3,1.8,0.4
		c0.6,0.1,1.2,0.2,1.8,0.2c0.6,0.1,1.3,0.1,2,0.1c1,0,1.9-0.1,2.8-0.4c0.9-0.2,1.7-0.6,2.4-1.1c0.7-0.5,1.2-1.1,1.6-1.8
		c0.4-0.7,0.6-1.6,0.6-2.5c0-0.9-0.2-1.7-0.7-2.3c-0.4-0.6-1-1.1-1.7-1.5c-0.7-0.4-1.5-0.8-2.4-1c-0.9-0.3-1.7-0.5-2.5-0.7
		c-1.2-0.3-2.4-0.6-3.6-1c-1.1-0.4-2.2-0.9-3.1-1.5c-0.9-0.6-1.6-1.4-2.1-2.2c-0.5-0.9-0.8-2-0.8-3.2c0-1.3,0.3-2.4,0.8-3.4
		c0.5-0.9,1.3-1.7,2.2-2.3c0.9-0.6,2-1,3.2-1.3c1.2-0.3,2.4-0.4,3.8-0.4c0.6,0,1.1,0,1.8,0.1c0.6,0,1.3,0.1,2,0.2
		c0.7,0.1,1.3,0.2,1.9,0.3c0.6,0.1,1.2,0.3,1.7,0.5c0.3,0.1,0.5,0.3,0.7,0.4c0.2,0.2,0.3,0.4,0.3,0.7c0,0.4-0.2,0.7-0.5,0.9
		c-0.3,0.2-0.7,0.3-1.1,0.3c-0.1,0-0.3,0-0.6-0.1c-1-0.3-2.1-0.5-3.1-0.7c-1-0.2-2.1-0.3-3.2-0.3c-0.9,0-1.8,0.1-2.7,0.2
		c-0.8,0.2-1.6,0.4-2.2,0.8c-0.6,0.4-1.1,0.9-1.5,1.5c-0.4,0.6-0.6,1.4-0.6,2.3c0,0.9,0.2,1.6,0.7,2.3c0.5,0.6,1,1.1,1.8,1.5
		c0.7,0.4,1.5,0.7,2.4,1c0.9,0.2,1.7,0.5,2.5,0.7c1.2,0.3,2.4,0.6,3.6,1c1.2,0.4,2.2,0.9,3.1,1.5c0.9,0.6,1.6,1.4,2.1,2.3
		c0.5,0.9,0.8,2,0.8,3.3c0,1.3-0.3,2.5-0.9,3.5c-0.6,1-1.4,1.9-2.3,2.6c-1,0.7-2.1,1.2-3.3,1.6c-1.3,0.4-2.6,0.5-3.9,0.5
		C78.5,45.1,77,45,75.4,44.8z"/>
	<path id="XMLID_695_" class="st0" d="M56.5,20.2v-1.6c0,0-0.1,0-0.2,0C56.2,18.6,56.3,19.4,56.5,20.2z"/>
	<path id="XMLID_693_" class="st0" d="M56.6,21.4V19c0-0.1,0-0.2,0-0.3c0-0.1-0.1-0.1-0.1-0.1v1.6C56.5,20.7,56.6,21.2,56.6,21.4z"
		/>
	<path id="XMLID_692_" d="M56.5,20.2v1.7l0.2-0.3v-0.2C56.6,21.2,56.5,20.7,56.5,20.2z"/>
	<path id="XMLID_676_" d="M56.6,21.4v0.2C56.6,21.6,56.6,21.5,56.6,21.4z"/>
	<path id="XMLID_675_" d="M59.4,18.3c-0.4-0.9-1.3-1.6-2.3-1.6c-0.3,0-0.6,0.1-0.8,0.1c0,0-0.1,0-0.1,0c-0.7,0.3-0.6,0.7-0.8,1.4
		c0,0-0.3,0.3-0.3,0.3l-7.5,14.2l-1.8,3.5l-1.8-3.5l-7.2-14.4c0,0,0,0,0-0.1c-0.2-0.7-0.8-1.2-1.4-1.5c0,0-0.1,0-0.1,0
		c-0.3-0.1-0.5-0.1-0.8-0.1c-1,0-1.9,0.7-2.3,1.6c-0.1,0.2-0.2,0.5-0.2,0.8v24.6c0,0.4,0.2,0.7,0.5,0.9c0.3,0.2,0.7,0.3,1,0.3
		c0.4,0,0.7-0.1,1.1-0.3c0.3-0.2,0.5-0.5,0.5-0.9V22.5c0,0,0-0.7,0-0.8c0.1-0.1,0.2,0.2,0.2,0.2l7.5,14.7c0.1,0.2,0.2,0.4,0.3,0.5
		c0.6,1,1.6,1.7,2.9,1.7c1.3,0,1.9-1,2.5-2c0.1-0.2,0.4-0.2,0.5-0.4l6.8-14.9l0.8,0c0.1,0,0.1,0,0.2,0v0v22.1c0,0.4,0.2,0.7,0.5,0.9
		c0.3,0.2,0.7,0.3,1.1,0.3c0.4,0,0.7-0.1,1-0.3c0.3-0.2,0.5-0.5,0.5-0.9V19.1C59.6,18.7,59.6,18.5,59.4,18.3z"/>
	<path id="XMLID_674_" class="st1" d="M45.1,38.9l-0.5-0.2l19.1-38c0.1-0.4,0.4-0.6,0.8-0.7c0.1,0,0.3,0,0.4,0
		c0.2,0,0.5,0.1,0.7,0.1c0.4,0.2,0.7,0.4,0.9,0.7c0.2,0.3,0.2,0.7,0.1,1L48.7,37.2l-0.2,0.4L48.2,38l-0.4,0.3l-0.5,0.3l-0.6,0.2
		l-0.4,0.1l-0.6,0.1L45.1,38.9z"/>
	<path id="XMLID_672_" class="st1" d="M45.5,58.8c-0.1-0.1-0.1-0.1-0.1-0.2v-6.9c0-0.1,0-0.2,0.1-0.2c0.1-0.1,0.2-0.1,0.3-0.1
		s0.2,0,0.3,0.1s0.1,0.1,0.1,0.2v6.9c0,0.1,0,0.2-0.1,0.2c-0.1,0.1-0.2,0.1-0.3,0.1S45.6,58.8,45.5,58.8z"/>
	<path id="XMLID_670_" class="st1" d="M50.7,52C50.7,52,50.7,52,50.7,52l0,6.6c0,0.1,0,0.2-0.1,0.2c-0.1,0.1-0.2,0.1-0.3,0.1
		s-0.2,0-0.3-0.1c-0.1-0.1-0.1-0.1-0.1-0.2v-6.4c0-0.2,0.1-0.4,0.2-0.6c0.2-0.2,0.4-0.2,0.7-0.2c0.4,0,0.7,0.2,0.8,0.5l3.4,6.4
		c0,0,0.1,0.1,0.1,0.1c0,0,0.1,0,0.1,0s0,0,0-0.1v-6.5c0-0.1,0-0.2,0.1-0.2c0.1-0.1,0.2-0.1,0.3-0.1c0.1,0,0.2,0,0.3,0.1
		c0.1,0.1,0.1,0.1,0.1,0.2V58c0,0.2-0.1,0.4-0.2,0.6c-0.2,0.2-0.4,0.2-0.7,0.2c-0.2,0-0.4,0-0.5-0.1c-0.1-0.1-0.3-0.2-0.3-0.3
		L50.9,52C50.9,51.9,50.8,51.9,50.7,52C50.8,51.9,50.7,51.9,50.7,52z"/>
	<path id="XMLID_668_" class="st1" d="M61.5,58.7c-0.1-0.1-0.3-0.2-0.3-0.4l-2.3-6.6c0,0,0-0.1,0-0.1c0-0.1,0-0.2,0.1-0.2
		c0.1-0.1,0.2-0.1,0.3-0.1c0.1,0,0.2,0,0.2,0.1c0.1,0,0.1,0.1,0.1,0.2l2.3,6.6c0,0,0,0.1,0.1,0.1c0,0,0.1,0,0.1-0.1l2.3-6.6
		c0-0.1,0.1-0.1,0.1-0.2c0.1,0,0.1-0.1,0.2-0.1c0.1,0,0.2,0,0.3,0.1c0.1,0.1,0.1,0.1,0.1,0.2c0,0,0,0.1,0,0.1l-2.3,6.6
		c-0.1,0.2-0.2,0.3-0.3,0.4c-0.1,0.1-0.3,0.1-0.5,0.1C61.9,58.9,61.7,58.8,61.5,58.7z"/>
	<path id="XMLID_666_" class="st1" d="M73.4,58.3c0.1,0.1,0.1,0.1,0.1,0.2c0,0.1,0,0.2-0.1,0.2c-0.1,0.1-0.2,0.1-0.3,0.1h-4.2
		c-0.2,0-0.4-0.1-0.5-0.2c-0.2-0.1-0.2-0.3-0.2-0.4v-6c0-0.1,0-0.3,0.1-0.4c0.1-0.1,0.1-0.2,0.3-0.3c0.1-0.1,0.2-0.1,0.4-0.2
		s0.3-0.1,0.4-0.1H73c0.1,0,0.2,0,0.3,0.1c0.1,0.1,0.1,0.1,0.1,0.2c0,0.1,0,0.2-0.1,0.2C73.2,51.9,73.1,52,73,52h-3.7
		c-0.1,0-0.2,0-0.2,0.1c-0.1,0-0.1,0.1-0.1,0.2v2.4h3.8c0.1,0,0.2,0,0.3,0.1c0.1,0.1,0.1,0.1,0.1,0.2c0,0.1,0,0.2-0.1,0.2
		c-0.1,0.1-0.2,0.1-0.3,0.1h-3.8v2.9h4.2C73.2,58.2,73.3,58.2,73.4,58.3z"/>
	<path id="XMLID_546_" class="st1" d="M77.9,58.8c-0.4-0.1-0.8-0.1-1.1-0.3c-0.1,0-0.1-0.1-0.2-0.1s-0.1-0.1-0.1-0.2
		c0-0.1,0-0.2,0.1-0.2c0.1-0.1,0.2-0.1,0.3-0.1c0.1,0,0.1,0,0.1,0c0.2,0,0.3,0.1,0.5,0.1c0.2,0,0.3,0.1,0.5,0.1
		c0.2,0,0.3,0.1,0.5,0.1c0.2,0,0.3,0,0.5,0c0.3,0,0.5,0,0.7-0.1c0.2-0.1,0.4-0.2,0.6-0.3s0.3-0.3,0.4-0.5c0.1-0.2,0.2-0.4,0.2-0.7
		c0-0.2-0.1-0.4-0.2-0.6c-0.1-0.2-0.3-0.3-0.5-0.4c-0.2-0.1-0.4-0.2-0.6-0.3s-0.5-0.1-0.7-0.2c-0.3-0.1-0.6-0.2-0.9-0.3
		c-0.3-0.1-0.6-0.2-0.8-0.4c-0.2-0.2-0.4-0.4-0.6-0.6c-0.1-0.2-0.2-0.5-0.2-0.9c0-0.3,0.1-0.6,0.2-0.9c0.1-0.2,0.3-0.4,0.6-0.6
		s0.5-0.3,0.8-0.3c0.3-0.1,0.6-0.1,1-0.1c0.1,0,0.3,0,0.5,0c0.2,0,0.3,0,0.5,0s0.3,0.1,0.5,0.1c0.2,0,0.3,0.1,0.5,0.1
		c0.1,0,0.1,0.1,0.2,0.1c0,0,0.1,0.1,0.1,0.2c0,0.1,0,0.2-0.1,0.2c-0.1,0.1-0.2,0.1-0.3,0.1c0,0-0.1,0-0.1,0
		c-0.3-0.1-0.5-0.1-0.8-0.2c-0.3,0-0.6-0.1-0.8-0.1c-0.3,0-0.5,0-0.7,0.1c-0.2,0-0.4,0.1-0.6,0.2s-0.3,0.2-0.4,0.4s-0.1,0.4-0.1,0.6
		c0,0.2,0.1,0.4,0.2,0.6c0.1,0.2,0.3,0.3,0.5,0.4c0.2,0.1,0.4,0.2,0.6,0.3c0.2,0.1,0.4,0.1,0.7,0.2c0.3,0.1,0.6,0.2,0.9,0.3
		s0.6,0.2,0.8,0.4s0.4,0.4,0.6,0.6c0.1,0.2,0.2,0.5,0.2,0.9c0,0.3-0.1,0.6-0.2,0.9c-0.2,0.3-0.4,0.5-0.6,0.7
		c-0.3,0.2-0.5,0.3-0.9,0.4c-0.3,0.1-0.7,0.1-1,0.1C78.7,58.9,78.4,58.9,77.9,58.8z"/>
	<path id="XMLID_544_" class="st1" d="M90.2,51.4c0.1,0.1,0.1,0.1,0.1,0.2c0,0.1,0,0.2-0.1,0.2C90.1,51.9,90,52,89.9,52h-2.3v6.6
		c0,0.1,0,0.2-0.1,0.2c-0.1,0.1-0.2,0.1-0.3,0.1c-0.1,0-0.2,0-0.3-0.1c-0.1-0.1-0.1-0.1-0.1-0.2V52h-2.3c-0.1,0-0.2,0-0.3-0.1
		c-0.1-0.1-0.1-0.1-0.1-0.2s0-0.2,0.1-0.2c0.1-0.1,0.2-0.1,0.3-0.1h5.3C90,51.3,90.1,51.3,90.2,51.4z"/>
</g>
</svg>
